<svg width="40" height="41" viewBox="0 0 40 41" fill="none" xmlns="http://www.w3.org/2000/svg">
<path d="M19.6667 31.776L13.05 35.7427C12.5316 36.0542 11.9381 36.2187 11.3333 36.2187C10.7285 36.2187 10.1351 36.0542 9.61667 35.7427L4.61667 32.7427C4.1246 32.4471 3.71721 32.0294 3.43398 31.5301C3.15074 31.0307 3.00126 30.4668 3 29.8927V24.4927C3.00126 23.9187 3.15074 23.3547 3.43398 22.8554C3.71721 22.356 4.1246 21.9383 4.61667 21.6427L11.3333 17.6094L19.6667 22.6094M19.6667 31.776V22.6094M19.6667 31.776L26.2833 35.7427C26.8018 36.0542 27.3952 36.2187 28 36.2187C28.6048 36.2187 29.1982 36.0542 29.7167 35.7427L34.7167 32.7427C35.2087 32.4471 35.6161 32.0294 35.8994 31.5301C36.1826 31.0307 36.3321 30.4668 36.3333 29.8927V24.4927C36.3321 23.9187 36.1826 23.3547 35.8994 22.8554C35.6161 22.356 35.2087 21.9383 34.7167 21.6427L28 17.6094L19.6667 22.6094M19.6667 22.6094L11.3333 27.6094M19.6667 22.6094L28 27.6094M11.3333 27.6094L3.43333 22.8594M11.3333 27.6094V36.226M28 27.6094L35.9 22.8594M28 27.6094V36.226" stroke="white" stroke-linecap="round" stroke-linejoin="round"/>
<path d="M19.6666 22.6094L11.3333 17.6094V10.326C11.3345 9.75198 11.484 9.18799 11.7672 8.68868C12.0505 8.18937 12.4578 7.77167 12.9499 7.47603L17.9499 4.47603C18.4684 4.16455 19.0618 4 19.6666 4C20.2714 4 20.8648 4.16455 21.3833 4.47603L26.3833 7.47603C26.8753 7.77167 27.2827 8.18937 27.5659 8.68868C27.8492 9.18799 27.9987 9.75198 27.9999 10.326V17.6094L19.6666 22.6094ZM19.6666 22.6094V13.4427M19.6666 13.4427L11.7666 8.6927M19.6666 13.4427L27.5666 8.6927" stroke="white" stroke-linecap="round" stroke-linejoin="round"/>
</svg>
