<svg width="34" height="34" viewBox="0 0 34 34" fill="none" xmlns="http://www.w3.org/2000/svg">
<path d="M26.9592 5.04332C24.5934 3.07415 21.6609 1.78499 18.4167 1.48749V4.33499C20.8675 4.60415 23.1059 5.58165 24.9476 7.05499L26.9592 5.04332ZM15.5834 4.33499V1.48749C12.3392 1.77082 9.40672 3.07415 7.04088 5.04332L9.05255 7.05499C10.9265 5.54569 13.1921 4.60212 15.5834 4.33499ZM7.05505 9.05249L5.04338 7.04082C3.07422 9.40665 1.78505 12.3392 1.48755 15.5833H4.33505C4.60422 13.1325 5.58172 10.8942 7.05505 9.05249ZM29.6651 15.5833H32.5126C32.2151 12.3392 30.9259 9.40665 28.9567 7.04082L26.9451 9.05249C28.4544 10.9265 29.3979 13.192 29.6651 15.5833ZM9.91672 17L14.79 19.21L17 24.0833L19.2101 19.21L24.0834 17L19.2101 14.79L17 9.91665L14.79 14.79L9.91672 17Z" fill="white"/>
<path d="M17.0001 29.75C14.9079 29.7496 12.8484 29.232 11.0046 28.2434C9.16075 27.2547 7.58989 25.8257 6.43175 24.0833H9.91675V21.25H1.41675V29.75H4.25008V25.925C7.06925 29.9483 11.7159 32.5833 17.0001 32.5833C23.8993 32.5833 29.7501 28.0925 31.7901 21.8733L29.0134 21.2358C27.2709 26.18 22.5534 29.75 17.0001 29.75Z" fill="white"/>
</svg>
