<svg width="33" height="33" viewBox="0 0 33 33" fill="none" xmlns="http://www.w3.org/2000/svg">
<path fill-rule="evenodd" clip-rule="evenodd" d="M11.3659 11.1756C10.5566 11.9732 9.93798 12.9435 9.55643 14.0139C9.17488 15.0842 9.04022 16.227 9.16252 17.3567C9.18002 17.5226 9.16468 17.6902 9.11739 17.8502C9.07009 18.0101 8.99176 18.1591 8.88686 18.2888C8.78197 18.4184 8.65257 18.5261 8.50604 18.6058C8.35952 18.6854 8.19875 18.7354 8.0329 18.7529C7.69796 18.7882 7.3627 18.6891 7.10087 18.4772C6.83904 18.2654 6.67209 17.9582 6.63675 17.6233C6.47464 16.1142 6.6555 14.588 7.16581 13.1585C7.67613 11.7291 8.50273 10.4334 9.5839 9.3682C13.5642 5.44374 19.9789 5.50974 23.9122 9.49766C27.8456 13.4856 27.8227 19.9028 23.8437 23.8273C22.0018 25.6477 19.5284 26.6871 16.9391 26.7287C15.9605 26.7463 14.9845 26.6224 14.0414 26.3607C13.8771 26.3197 13.7226 26.2462 13.5871 26.1446C13.4516 26.0429 13.3378 25.9152 13.2524 25.7689C13.167 25.6226 13.1118 25.4607 13.09 25.2927C13.0681 25.1247 13.0802 24.9541 13.1253 24.7908C13.1705 24.6275 13.2478 24.475 13.3529 24.3421C13.4579 24.2092 13.5885 24.0987 13.7369 24.017C13.8854 23.9354 14.0486 23.8843 14.2171 23.8668C14.3856 23.8492 14.5559 23.8656 14.7179 23.9149C15.426 24.1111 16.1588 24.2039 16.8934 24.1903C18.8312 24.1602 20.6824 23.3826 22.0604 22.0199C25.0342 19.088 25.0622 14.2789 22.1049 11.2809C19.1476 8.28301 14.3397 8.24366 11.3672 11.1756" fill="#FBFCFD"/>
<path fill-rule="evenodd" clip-rule="evenodd" d="M8.84271 18.6514C8.73188 18.7759 8.59761 18.8774 8.44756 18.95C8.2975 19.0226 8.13462 19.065 7.96819 19.0746C7.80177 19.0843 7.63508 19.0611 7.47763 19.0063C7.32018 18.9515 7.17506 18.8663 7.05056 18.7554L4.86748 16.8135C4.61603 16.5897 4.46379 16.2751 4.44428 15.939C4.42476 15.6029 4.53955 15.2728 4.7634 15.0214C4.98726 14.7699 5.30183 14.6177 5.63793 14.5981C5.97402 14.5786 6.3041 14.6934 6.55556 14.9173L8.73864 16.8592C8.86316 16.97 8.96463 17.1043 9.03726 17.2544C9.10988 17.4044 9.15224 17.5673 9.1619 17.7337C9.17157 17.9001 9.14835 18.0668 9.09359 18.2243C9.03882 18.3817 8.95357 18.5269 8.84271 18.6514Z" fill="#FBFCFD"/>
<path fill-rule="evenodd" clip-rule="evenodd" d="M6.87933 18.5308C6.97934 18.6641 7.10463 18.7765 7.24805 18.8614C7.39148 18.9463 7.55022 19.0022 7.71522 19.0257C7.88023 19.0493 8.04826 19.0401 8.20972 18.9988C8.37118 18.9574 8.52292 18.8846 8.65626 18.7846L11.1947 16.8808C11.464 16.6788 11.642 16.3781 11.6897 16.0449C11.7373 15.7117 11.6505 15.3732 11.4486 15.1039C11.2466 14.8346 10.9459 14.6565 10.6127 14.6089C10.2794 14.5613 9.94094 14.648 9.67164 14.85L7.13318 16.7539C6.99984 16.8539 6.8875 16.9792 6.80258 17.1226C6.71766 17.266 6.66182 17.4248 6.63824 17.5898C6.61467 17.7548 6.62383 17.9228 6.6652 18.0842C6.70656 18.2457 6.77933 18.3974 6.87933 18.5308ZM16.5001 11.4231C16.8367 11.4231 17.1596 11.5568 17.3976 11.7948C17.6356 12.0329 17.7693 12.3557 17.7693 12.6923V17.1346C17.7693 17.4713 17.6356 17.7941 17.3976 18.0321C17.1596 18.2701 16.8367 18.4039 16.5001 18.4039C16.1635 18.4039 15.8406 18.2701 15.6026 18.0321C15.3646 17.7941 15.2309 17.4713 15.2309 17.1346V12.6923C15.2309 12.3557 15.3646 12.0329 15.6026 11.7948C15.8406 11.5568 16.1635 11.4231 16.5001 11.4231Z" fill="#FBFCFD"/>
<path fill-rule="evenodd" clip-rule="evenodd" d="M21.5769 17.1346C21.5769 17.4712 21.4431 17.794 21.2051 18.0321C20.9671 18.2701 20.6443 18.4038 20.3076 18.4038H16.4999C16.1633 18.4038 15.8405 18.2701 15.6025 18.0321C15.3644 17.794 15.2307 17.4712 15.2307 17.1346C15.2307 16.798 15.3644 16.4751 15.6025 16.2371C15.8405 15.9991 16.1633 15.8654 16.4999 15.8654H20.3076C20.6443 15.8654 20.9671 15.9991 21.2051 16.2371C21.4431 16.4751 21.5769 16.798 21.5769 17.1346Z" fill="#FBFCFD"/>
<path fill-rule="evenodd" clip-rule="evenodd" d="M16.5 30.4615C24.2106 30.4615 30.4615 24.2106 30.4615 16.5C30.4615 8.78942 24.2106 2.53846 16.5 2.53846C8.78942 2.53846 2.53846 8.78942 2.53846 16.5C2.53846 24.2106 8.78942 30.4615 16.5 30.4615ZM16.5 33C25.6131 33 33 25.6131 33 16.5C33 7.38692 25.6131 0 16.5 0C7.38692 0 0 7.38692 0 16.5C0 25.6131 7.38692 33 16.5 33Z" fill="#FBFCFD"/>
</svg>
